<?xml version="1.0" encoding="UTF-8" standalone="no"?>
<!-- Created with Inkscape (http://www.inkscape.org/) -->

<svg
   width="203.87086mm"
   height="42.04446mm"
   viewBox="0 0 203.87086 42.04446"
   version="1.1"
   id="svg5"
   xml:space="preserve"
   xmlns="http://www.w3.org/2000/svg"
   xmlns:svg="http://www.w3.org/2000/svg"><defs
     id="defs2" /><g
     id="layer1"
     transform="translate(-1.3161225,-106.70615)"><path
       id="path454"
       style="font-style:italic;font-weight:bold;font-size:63.9944px;font-family:Montserrat;-inkscape-font-specification:'Montserrat Subrayada Bold Italic';text-align:end;text-anchor:end;fill:#6a59a3;fill-opacity:1;stroke-width:6.80255;stroke-dashoffset:13.6063;paint-order:stroke markers fill"
       d="m 28.358993,106.70615 c -6.612749,0 -12.180074,2.21847 -16.70234,6.65541 -3.050875,2.96453 -5.0684781,6.42647 -6.0611289,10.38127 H 16.298747 c 0.632055,-1.48757 1.515281,-2.85825 2.653068,-4.10982 2.559773,-2.81575 5.695507,-4.22352 9.407178,-4.22352 3.754334,0 6.911483,1.40777 9.471256,4.22352 1.137782,1.25156 2.021014,2.62226 2.653068,4.10982 h 10.639144 c -0.992651,-3.9548 -3.009737,-7.41674 -6.060612,-10.38127 -4.522267,-4.43694 -10.090108,-6.65541 -16.702856,-6.65541 z m 46.267976,0 c -4.564929,0 -8.383387,1.15233 -11.455114,3.45612 -3.029066,2.3038 -4.543392,5.5884 -4.543392,9.85469 0,1.35689 0.124976,2.59795 0.371553,3.72587 H 72.44054 c -0.768092,-0.29912 -1.370826,-0.58207 -1.781287,-0.84594 -1.151898,-0.76793 -1.727543,-1.79176 -1.727543,-3.07165 0,-1.32255 0.469083,-2.36779 1.407666,-3.13572 0.981247,-0.81059 2.303864,-1.21595 3.967716,-1.21595 4.138301,0 8.148468,1.47202 12.03079,4.41575 l 5.055506,-7.29568 c -2.218471,-1.87716 -4.820873,-3.32724 -7.807276,-4.35115 -2.986402,-1.02391 -5.97274,-1.53634 -8.959143,-1.53634 z m 26.110031,1.02423 v 16.01245 h 21.00854 l -7.506,-16.01245 z m 36.60449,0 -7.54735,16.01245 h 20.98632 v -16.01245 z m 23.8063,0 v 16.01245 h 9.98285 v -16.01245 z m 28.34917,0 v 16.01245 h 9.98337 v -16.01245 z m -73.30509,27.69288 6.55929,13.32735 h 5.95106 l 6.59391,-13.32735 z m 88.99512,-1.87087 V 134.095 H 195.1802 v -0.54261 h 1.22403 v -8.278 h 3.11687 q 2.35973,0 3.62162,1.16094 1.26189,1.14832 1.26189,3.24306 0,2.82663 -2.19568,3.874 z m -5.56494,-1.1988 q 1.35022,0 2.0695,-0.68142 0.7319,-0.68142 0.7319,-1.98116 0,-1.29975 -0.7319,-1.99379 -0.71928,-0.70666 -2.22093,-0.70666 h -1.09784 v 5.36303 z m -11.47056,1.1988 v -8.278 h 6.35992 v 1.75403 h -4.39138 v 1.81712 h 3.94972 v 1.67831 h -3.94972 v 1.82974 h 4.53019 v 1.1988 h 1.22403 v 0.54261 h -8.9468 v -0.54261 z m -1.08524,0 v 0.54261 h -7.67229 v -0.54261 h 2.85187 v -6.57445 h -2.49854 v -1.70355 h 6.96563 v 1.70355 h -2.49854 v 6.57445 z m -7.67227,0 v 0.54261 h -4.139 v -0.54261 h 1.08523 v -8.278 h 1.96854 v 8.278 z m -13.36342,0 v -8.278 h 1.84236 l 4.32828,5.67851 v -5.67851 h 1.96855 v 8.278 h 1.22403 v 0.54261 h -3.19258 l -4.20209,-5.52708 v 5.52708 h -3.19258 v -0.54261 z m -1.08521,0 v 0.54261 h -9.47679 v -0.54261 h 2.51116 q -1.55213,-1.03475 -1.55213,-3.34401 v -4.93399 h 1.96855 v 4.8709 q 0,1.05998 0.49214,1.67831 0.49214,0.60571 1.32498,0.60571 0.83285,0 1.31237,-0.60571 0.49214,-0.61833 0.49214,-1.67831 v -4.8709 h 1.96855 v 4.93399 q 0,2.30926 -1.53951,3.34401 z m -9.47679,0 v 0.54261 h -3.33139 v -0.54261 z m -3.33141,0 v 0.54261 h -8.05086 v -0.54261 h 1.71618 q -0.69404,-0.35333 -1.26189,-0.90856 l 1.17355,-1.43856 q 1.42594,1.24927 2.63735,1.24927 0.54262,0 0.84547,-0.22714 0.31547,-0.23976 0.31547,-0.63094 0,-0.40381 -0.32809,-0.63095 -0.32809,-0.23976 -1.29975,-0.47951 -1.5395,-0.36595 -2.25878,-0.94642 -0.70666,-0.59309 -0.70666,-1.84236 0,-1.26189 0.89594,-1.94331 0.90856,-0.68142 2.25879,-0.68142 0.88332,0 1.76664,0.30285 0.88333,0.30285 1.53951,0.85809 l -0.99689,1.43855 q -1.14832,-0.8707 -2.37236,-0.8707 -0.49213,0 -0.78237,0.23976 -0.27762,0.22714 -0.27762,0.61832 0,0.37857 0.34072,0.60571 0.35332,0.22714 1.6026,0.54261 1.26189,0.30286 1.95593,0.92118 0.69403,0.61833 0.69403,1.71617 0,1.36284 -1.02213,2.10736 z m -16.13955,0 v -8.278 h 3.34401 q 2.05688,0 2.92758,0.69404 0.88333,0.69404 0.88333,2.23354 0,2.11998 -1.67832,2.73831 l 1.84236,2.61211 h 1.18618 v 0.54261 h -3.21782 l -1.95593,-2.81401 h -1.36284 v 2.81401 h -3.19258 v -0.54261 z m 3.4071,-3.97496 q 1.00952,0 1.37546,-0.32809 0.36595,-0.32809 0.36595,-1.03475 0,-0.71927 -0.37857,-0.98427 -0.37856,-0.265 -1.32498,-0.265 h -1.47641 v 2.61211 z m -11.65985,3.97496 v -8.278 h 6.35992 v 1.75403 h -4.39138 v 1.81712 h 3.94972 v 1.67831 h -3.94972 v 1.82974 h 4.53019 v 1.1988 h 1.22403 v 0.54261 h -8.9468 v -0.54261 z m -10.30964,0 v -8.278 h 1.84236 l 4.32828,5.67851 v -5.67851 h 1.96855 v 8.278 h 1.22403 v 0.54261 h -3.19258 l -4.20209,-5.52708 v 5.52708 h -3.19259 v -0.54261 z m -1.08521,0 v 0.54261 h -4.139 v -0.54261 h 1.08522 v -8.278 h 1.96855 v 8.278 z m -7.19278,-5.0097 -2.38497,4.82042 h -1.17356 l -2.37236,-4.82042 v 5.55231 h -3.19258 v -0.54261 h 1.22404 v -8.278 h 2.66258 l 2.27141,4.84566 2.28402,-4.84566 h 2.64997 v 8.278 h 1.22403 v 0.54261 h -3.19258 z m -8.98466,5.0097 v 0.54261 h -3.33139 v -0.54261 z m -10.498919,0 v -8.278 h 6.359926 v 1.75403 h -4.391378 v 1.81712 h 3.949716 v 1.67831 h -3.949716 v 1.82974 h 4.530186 v 1.1988 h 1.224033 v 0.54261 h -8.9468 v -0.54261 z m -1.085229,0 v 0.54261 h -9.28751 v -0.54261 h 2.713063 q -1.009512,-0.59309 -1.589981,-1.6026 -0.567851,-1.02213 -0.567851,-2.30926 0,-1.94331 1.337604,-3.25568 1.350222,-1.31236 3.293533,-1.31236 2.170451,0 3.634243,1.65307 l -1.224033,1.38808 q -0.933799,-1.16094 -2.321878,-1.16094 -1.110463,0 -1.905454,0.7319 -0.782372,0.71928 -0.782372,1.95593 0,1.22403 0.744516,1.96855 0.744515,0.74451 1.804502,0.74451 1.451174,0 2.372354,-1.14832 l 1.26189,1.29975 q -0.555232,0.64356 -1.249272,1.04737 z m -17.376212,0 v -8.278 h 3.344009 q 2.05688,0 2.927584,0.69404 0.883323,0.69404 0.883323,2.23354 0,2.11998 -1.678313,2.73831 l 1.842359,2.61211 h 1.186177 v 0.54261 h -3.21782 l -1.955929,-2.81401 h -1.362842 v 2.81401 h -3.192581 v -0.54261 z m 3.407103,-3.97496 q 1.009512,0 1.37546,-0.32809 0.365948,-0.32809 0.365948,-1.03475 0,-0.71927 -0.378567,-0.98427 -0.378567,-0.265 -1.324984,-0.265 h -1.476412 v 2.61211 z m -4.492322,3.97496 v 0.54261 h -9.476794 v -0.54261 h 2.511161 q -1.552125,-1.03475 -1.552125,-3.34401 v -4.93399 h 1.968549 v 4.8709 q 0,1.05998 0.492137,1.67831 0.492137,0.60571 1.324985,0.60571 0.832847,0 1.312365,-0.60571 0.492137,-0.61833 0.492137,-1.67831 v -4.8709 h 1.968549 v 4.93399 q 0,2.30926 -1.539506,3.34401 z m -9.476796,0 V 134.095 H 50.226973 v -0.54261 h 2.814015 q -1.03475,-0.59309 -1.640457,-1.62784 -0.593089,-1.03475 -0.593089,-2.29664 0,-1.94331 1.337604,-3.24306 1.337603,-1.31236 3.293533,-1.31236 1.955929,0 3.293533,1.31236 1.337603,1.29975 1.337603,3.24306 0,1.26189 -0.605707,2.29664 -0.605707,1.03475 -1.627838,1.62784 z m -2.586875,-3.91186 q 0,-1.18618 -0.757134,-2.01902 -0.757134,-0.83285 -1.867597,-0.83285 -1.097844,0 -1.854978,0.83285 -0.757135,0.83284 -0.757135,2.01902 0,1.17356 0.757135,2.0064 0.757134,0.82023 1.854978,0.82023 1.110463,0 1.867597,-0.82023 0.757134,-0.83284 0.757134,-2.0064 z m -7.836344,3.91186 v 0.54261 h -8.050858 v -0.54261 h 1.71617 q -0.694039,-0.35333 -1.26189,-0.90856 l 1.173558,-1.43856 q 1.425936,1.24927 2.63735,1.24927 0.542613,0 0.845466,-0.22714 0.315473,-0.23976 0.315473,-0.63094 0,-0.40381 -0.328091,-0.63095 -0.328092,-0.23976 -1.299747,-0.47951 -1.539506,-0.36595 -2.258783,-0.94642 -0.706659,-0.59309 -0.706659,-1.84236 0,-1.26189 0.895942,-1.94331 0.908561,-0.68142 2.258783,-0.68142 0.883323,0 1.766646,0.30285 0.883323,0.30285 1.539506,0.85809 l -0.996893,1.43855 q -1.14832,-0.8707 -2.372353,-0.8707 -0.492137,0 -0.782372,0.23976 -0.277616,0.22714 -0.277616,0.61832 0,0.37857 0.340711,0.60571 0.353329,0.22714 1.6026,0.54261 1.26189,0.30286 1.955929,0.92118 0.69404,0.61833 0.69404,1.71617 0,1.36284 -1.022131,2.10736 z m -8.050859,0 v 0.54261 h -3.33139 v -0.54261 z m -12.555795,0 v -8.278 h 1.842359 l 4.328283,5.67851 v -5.67851 h 1.968548 v 8.278 h 1.224034 v 0.54261 h -3.192582 l -4.202094,-5.52708 v 5.52708 h -3.192582 v -0.54261 z m -8.252755,0 v -8.278 h 6.359926 v 1.75403 h -4.391377 v 1.81712 h 3.949716 v 1.67831 h -3.949716 v 1.82974 h 4.530185 v 1.1988 h 1.224033 v 0.54261 h -8.9468 v -0.54261 z m -1.085225,0 v 0.54261 h -8.681803 v -0.54261 h 1.224033 v -8.278 h 3.116868 q 2.031643,0 2.952823,0.79499 0.933799,0.78237 0.933799,2.42283 0,1.62784 -0.959037,2.38497 -0.946417,0.75714 -2.902347,0.75714 H 14.79311 v 1.91807 z m -4.164237,-3.62163 q 0.984274,0 1.337603,-0.39118 0.35333,-0.40381 0.35333,-1.16094 0,-0.76975 -0.4669,-1.08523 -0.45428,-0.32809 -1.425936,-0.32809 H 14.79311 v 2.96544 z m -4.378761,3.62163 V 134.095 H 1.3161225 v -0.54261 h 2.8140148 q -1.0347498,-0.59309 -1.6404571,-1.62784 -0.5930883,-1.03475 -0.5930883,-2.29664 0,-1.94331 1.3376035,-3.24306 1.3376034,-1.31236 3.2935329,-1.31236 1.9559296,0 3.293533,1.31236 1.3376037,1.29975 1.3376037,3.24306 0,1.26189 -0.605707,2.29664 -0.6057077,1.03475 -1.6278386,1.62784 z m -2.5868744,-3.91186 q 0,-1.18618 -0.757134,-2.01902 -0.757134,-0.83285 -1.8675973,-0.83285 -1.0978443,0 -1.8549783,0.83285 -0.757134,0.83284 -0.757134,2.01902 0,1.17356 0.757134,2.0064 0.757134,0.82023 1.8549783,0.82023 1.1104633,0 1.8675973,-0.82023 0.757134,-0.83284 0.757134,-2.0064 z" /></g></svg>
